<svg width="41" height="56" viewBox="0 0 41 56" fill="none" xmlns="http://www.w3.org/2000/svg">
<path d="M2.05275 0.400153C2.05275 0.400153 7.29434 3.12515 9.07354 4.10015C10.8527 5.07515 11.0527 2.70015 13.5027 2.62515C15.9527 2.55015 28.6527 2.09475 34.1527 13.5472C34.1527 13.5472 39.9195 17.4668 40.3861 17.2668C40.8527 17.0668 39.4527 21.8002 39.0527 22.4668C38.6527 23.1334 39.3863 40.4002 27.7861 48.2002C27.3861 48.5336 34.3191 36.0002 25.7193 23.2668C25.5193 22.8002 23.3527 19.9752 23.0777 20.4502C22.8027 20.9252 23.7527 24.2316 23.9777 24.3034C24.2027 24.3752 19.8527 22.5502 19.3027 18.9502C19.3027 18.6002 18.7361 18.2502 18.6695 19.0502C18.6695 19.1836 18.7605 20.7168 18.9483 20.8002C19.1361 20.8836 16.1083 21.2448 16.6805 13.5472C16.7027 12.8502 0.902747 1.75015 0.902747 1.75015C0.902747 1.75015 0.0193455 0.933553 0.586145 0.400153C1.15294 -0.133247 2.05275 0.400153 2.05275 0.400153Z" fill="#808080"/>
<path d="M26.8528 28.0498C26.8528 28.0498 28.3528 43.4998 16.2528 48.9498C16.2528 48.9498 15.6278 49.1248 15.4028 48.8248C15.1778 48.5248 11.5278 42.4248 9.57777 43.0248L9.97777 46.7498L8.07777 48.6248L8.50277 50.2498H6.95277L3.90277 54.0498C3.90277 54.0498 9.21197 57.2748 15.4072 53.0748C15.6028 52.9498 35.186 52.433 26.8528 28.0498Z" fill="#808080"/>
</svg>


