<svg width="80" height="80" viewBox="0 0 80 80" fill="none" xmlns="http://www.w3.org/2000/svg">
<path d="M45.8533 65.6267L40.68 66.0133C41.24 65.92 41.7867 65.7867 42.32 65.6267L47.4933 65.24C46.96 65.3867 46.4133 65.52 45.8533 65.6267Z" fill="#006D55"/>
<path d="M47.4933 65.2265L42.32 65.6132C44.0133 65.0932 45.5867 64.2665 47.04 63.1599L52.2133 62.7732C50.76 63.8799 49.1867 64.7065 47.4933 65.2265Z" fill="#007057"/>
<path d="M52.2134 62.7733L47.04 63.16C50.7467 60.3333 53.5734 55.7466 55.04 50.28L60.2134 49.8933C58.7334 55.36 55.92 59.9466 52.2134 62.7733Z" fill="#007359"/>
<path d="M60.2 49.8932L55.0267 50.2799C55.6133 48.1065 55.9733 45.7999 56.1067 43.3999L61.28 43.0132C61.16 45.4132 60.7867 47.7198 60.2 49.8932Z" fill="#007057"/>
<path d="M61.28 43.0131L56.1067 43.3998C56.2133 41.4931 56.16 39.5464 55.9467 37.5598L61.12 37.1731C61.3333 39.1598 61.3867 41.1064 61.28 43.0131Z" fill="#006D55"/>
<path d="M61.12 37.1733L55.9467 37.5599C55.92 37.3599 55.8934 37.1466 55.88 36.9333C55.64 35.0399 55.2534 33.2133 54.7467 31.4799L59.92 31.0933C60.4267 32.8266 60.8134 34.6533 61.0534 36.5466C61.0667 36.7599 61.0934 36.9733 61.12 37.1733Z" fill="#006B53"/>
<path d="M59.92 31.0932L54.7467 31.4799C51.6267 20.7866 43.8267 13.5866 35.4933 14.1999L40.6667 13.8132C48.9867 13.1999 56.8 20.3999 59.92 31.0932Z" fill="#006850"/>
<path d="M44.5066 65.7866L39.3333 66.1733C39.7866 66.1466 40.2266 66.0799 40.68 65.9999L45.8533 65.6133C45.4 65.7066 44.96 65.7599 44.5066 65.7866Z" fill="#006D55"/>
<path d="M39.32 13.9866L34.1467 14.3732C34.6 14.2932 35.0533 14.2399 35.4933 14.1999L40.6667 13.8132C40.2133 13.8532 39.7733 13.9066 39.32 13.9866Z" fill="#8F8F8F"/>
<path d="M39.2267 13.2534L34.0533 13.6401C34.52 13.5601 34.9867 13.5067 35.44 13.4667L40.6133 13.0801C40.1467 13.1067 39.6933 13.1734 39.2267 13.2534Z" fill="#006D55"/>
<path d="M44.5067 65.7867L39.3334 66.1734C31.0134 66.7867 23.2 59.5867 20.08 48.9067L25.2534 48.52C28.3734 59.2134 36.1867 66.4134 44.5067 65.7867Z" fill="#858585"/>
<path d="M25.2533 48.52L20.08 48.9067C19.5733 47.1734 19.1867 45.3467 18.9467 43.4534C18.92 43.2534 18.8933 43.04 18.88 42.84L24.0533 42.4534C24.08 42.6534 24.1067 42.8667 24.12 43.0667C24.3733 44.96 24.7467 46.7867 25.2533 48.52Z" fill="#8A8A8A"/>
<path d="M25.2533 48.52L20.08 48.9067C19.5733 47.1734 19.1867 45.3467 18.9467 43.4534C18.92 43.2534 18.8933 43.04 18.88 42.84L24.0533 42.4534C24.08 42.6534 24.1067 42.8667 24.12 43.0667C24.3733 44.96 24.7467 46.7867 25.2533 48.52Z" fill="#8A8A8A"/>
<path d="M24.0534 42.4401L18.88 42.8268C18.6667 40.8401 18.6134 38.8934 18.72 36.9868L23.8934 36.6001C23.7867 38.5068 23.84 40.4668 24.0534 42.4401Z" fill="#8F8F8F"/>
<path d="M23.8934 36.6L18.72 36.9866C18.8534 34.5866 19.2134 32.28 19.8 30.1066L24.9734 29.72C24.3867 31.8933 24.0134 34.2 23.8934 36.6Z" fill="#949494"/>
<path d="M24.9734 29.72L19.8 30.1067C21.2667 24.64 24.08 20.04 27.8 17.2133L32.9734 16.8267C29.2534 19.6667 26.44 24.2533 24.9734 29.72Z" fill="#999999"/>
<path d="M32.96 16.8401L27.7867 17.2267C29.2267 16.1201 30.8133 15.2934 32.5067 14.7734L37.68 14.3867C35.9867 14.8934 34.4133 15.7334 32.96 16.8401Z" fill="#949494"/>
<path d="M37.68 14.3867L32.5067 14.7733C33.04 14.6133 33.5867 14.48 34.1467 14.3867L39.32 14C38.76 14.0933 38.2134 14.2133 37.68 14.3867Z" fill="#8F8F8F"/>
<path d="M44.56 66.5333L39.3867 66.92C29.44 67.6533 20.2 57.5333 18.4267 43.5333C16.5733 28.8933 23.5733 15.48 34.0533 13.6267L39.2267 13.24C28.76 15.08 21.7467 28.5067 23.6 43.1467C25.3733 57.1467 34.6133 67.28 44.56 66.5333Z" fill="url(#paint0_linear_75_5105)"/>
<path d="M44.56 66.5334L39.3867 66.92C30.8267 67.56 22.7867 60.1467 19.5867 49.1467L24.76 48.76C27.96 59.76 36 67.1734 44.56 66.5334Z" fill="url(#paint1_linear_75_5105)"/>
<path d="M24.76 48.7734L19.5867 49.16C19.0667 47.3733 18.68 45.4934 18.4267 43.5467C18.4 43.3334 18.3733 43.12 18.3467 42.9067L23.52 42.52C23.5467 42.7334 23.5733 42.9467 23.6 43.16C23.8533 45.1067 24.24 46.9867 24.76 48.7734Z" fill="url(#paint2_linear_75_5105)"/>
<path d="M23.52 42.5202L18.3467 42.9068C18.12 40.8668 18.0667 38.8535 18.1733 36.8935L23.3467 36.5068C23.2533 38.4668 23.3067 40.4802 23.52 42.5202Z" fill="url(#paint3_linear_75_5105)"/>
<path d="M23.36 36.5068L18.1866 36.8935C18.32 34.4268 18.6933 32.0535 19.2933 29.8269L24.4666 29.4402C23.8666 31.6669 23.4933 34.0402 23.36 36.5068Z" fill="url(#paint4_linear_75_5105)"/>
<path d="M24.4667 29.4401L19.2933 29.8268C20.8 24.2001 23.6933 19.4801 27.52 16.5734L32.6933 16.1868C28.8667 19.0934 25.9733 23.8001 24.4667 29.4401Z" fill="url(#paint5_linear_75_5105)"/>
<path d="M32.6934 16.1733L27.52 16.56C29.0134 15.4267 30.64 14.5733 32.3734 14.04L37.5467 13.6533C35.8 14.1867 34.1734 15.04 32.6934 16.1733Z" fill="url(#paint6_linear_75_5105)"/>
<path d="M37.5467 13.6534L32.3734 14.0401C32.92 13.8668 33.48 13.7334 34.0534 13.6401L39.2267 13.2534C38.6534 13.3468 38.0934 13.4934 37.5467 13.6534Z" fill="url(#paint7_linear_75_5105)"/>
<path d="M39.2267 13.2532C49.6933 11.4132 59.72 21.8132 61.5733 36.4665C63.4267 51.1065 56.4133 64.5199 45.9467 66.3732C35.48 68.2132 25.4533 57.8132 23.6 43.1599C21.7467 28.5065 28.76 15.0932 39.2267 13.2532ZM45.8533 65.6265C56.0267 63.8265 62.84 50.7865 61.04 36.5599C59.24 22.3199 49.4933 12.1999 39.3067 13.9999C29.1333 15.7999 22.32 28.8399 24.12 43.0665C25.9333 57.2932 35.68 67.4132 45.8533 65.6265Z" fill="url(#paint8_linear_75_5105)"/>
<path d="M39.32 13.9867C49.4933 12.1867 59.24 22.32 61.0533 36.5467C62.8533 50.7867 56.04 63.8267 45.8667 65.6133C35.6933 67.4133 25.9467 57.2933 24.1333 43.0533C22.32 28.8267 29.1333 15.7867 39.32 13.9867Z" fill="url(#paint9_linear_75_5105)"/>
<path d="M29.0933 26.6934C29.52 26.12 30.2533 25.2934 31.0933 24.56C32.28 23.5334 33.1733 23.08 33.8667 22.8267C34.44 22.6267 34.84 22.6134 34.9333 22.8C35.0533 23.04 34.52 23.5467 33.6133 24.28C34.52 23.76 35.6933 23.4267 35.8667 23.8C35.9733 24.0134 35.7333 24.3334 35.3467 24.6934C34.8267 25.1867 33.8933 25.8134 32.6533 26.9334C31.9733 27.5467 31.4933 28.08 31.1867 28.4267C30.36 27.7334 29.9333 27.3867 29.0933 26.6934ZM30.9867 26.3067C31.36 25.92 31.56 25.7467 31.96 25.4C33.1333 24.4 33.8 23.8 33.6667 23.5734C33.4933 23.2934 32.52 23.7067 31.3333 24.72C30.8 25.1867 30.5067 25.4934 30.3467 25.68C30.6 25.92 30.72 26.0534 30.9867 26.3067ZM31.9333 27.24C32.1333 27.0534 32.4133 26.7867 32.7733 26.48C33.8267 25.5734 34.8267 24.8267 34.6267 24.48C34.4267 24.1467 33.24 24.64 32.0667 25.68C31.7067 25.9867 31.5333 26.16 31.1867 26.4934C31.48 26.7867 31.6267 26.9467 31.9333 27.24Z" fill="#916B1C"/>
<path d="M38.3066 20.8401C38.4666 21.4801 38.5466 21.8001 38.7066 22.4401C38.8533 23.0401 39.8666 23.0401 41.1733 22.9201C42.6266 22.7868 43.5733 22.6134 43.6133 22.0001C43.6533 21.3468 43.68 21.0134 43.72 20.3601C44.32 20.4001 44.6133 20.4268 45.2133 20.5201C45.12 21.1601 45.0666 21.4801 44.96 22.1201C44.8266 22.9601 43.2266 23.0134 41.1466 23.2134C39.1866 23.4001 37.6533 23.6268 37.3733 22.8134C37.16 22.1868 37.0533 21.8801 36.84 21.2668C37.4266 21.0668 37.72 20.9734 38.3066 20.8401Z" fill="#916B1C"/>
<path d="M47.72 21.0935C50.1067 21.8268 51.2667 22.4002 53.3067 24.0002C53.2267 24.0935 53.2 24.1468 53.12 24.2402C51.5867 23.0535 50.76 22.5735 49.0133 21.8802C48.88 22.2268 48.8 22.4002 48.6667 22.7335C50.1867 23.3468 50.92 23.7468 52.2667 24.7602C52.2 24.8535 52.16 24.9068 52.0933 25.0002C50.76 24.0135 50.04 23.6135 48.56 23.0135C48.3733 23.4802 48.28 23.7202 48.0933 24.1868C47.6267 24.0002 47.3867 23.9202 46.9067 23.7735C47.2267 22.6802 47.3867 22.1468 47.72 21.0935Z" fill="#916B1C"/>
<path d="M56.0533 26.6666C55.2 27.3733 54.76 27.7333 53.9067 28.44C53.56 28.0133 53.3733 27.8133 53 27.44C53.7867 26.6533 54.1867 26.2666 54.9733 25.48C55.4133 25.92 55.6267 26.16 56.0533 26.6666Z" fill="#916B1C"/>
<path d="M41.1467 58.88C41.4133 58.84 41.5867 58.9067 41.6667 58.9467L41.6267 59.2667C41.52 59.2133 41.3733 59.1867 41.1867 59.2133C40.68 59.28 40.3867 59.7867 40.4667 60.5733C40.5333 61.3067 40.88 61.7333 41.4 61.6667C41.5733 61.64 41.7333 61.5733 41.84 61.4667L41.9333 61.7733C41.84 61.8533 41.64 61.96 41.3733 62C40.7733 62.08 40.2667 61.6133 40.1733 60.6267C40.0667 59.6667 40.48 58.9733 41.1467 58.88Z" fill="#916B1C"/>
<path d="M43.5333 58.5469C44.12 58.4669 44.56 59.0269 44.64 59.9335C44.7333 60.9735 44.3333 61.5735 43.7867 61.6535C43.2267 61.7335 42.76 61.1869 42.68 60.2669C42.5867 59.3069 42.96 58.6269 43.5333 58.5469ZM43.7733 61.3335C44.2133 61.2669 44.4133 60.6802 44.3467 60.0002C44.2933 59.3869 44.0133 58.8002 43.5467 58.8669C43.08 58.9335 42.9067 59.5602 42.9733 60.2135C43.04 60.8535 43.3333 61.3869 43.7733 61.3335Z" fill="#916B1C"/>
<path d="M45.8133 58.2668L46.0933 61.2668L45.8133 61.3068L45.5466 58.3068L45.8133 58.2668Z" fill="#916B1C"/>
<path d="M48.5867 57.8801L48.8667 60.8801L48.5867 60.9201L47.76 59.5068C47.5733 59.2001 47.4133 58.8668 47.2667 58.5601H47.2533C47.3067 58.9335 47.3333 59.2935 47.3867 59.8001L47.5067 61.0801L47.2533 61.1201L46.9733 58.1201L47.2667 58.0801L48.0933 59.4935C48.28 59.8268 48.44 60.1201 48.5733 60.4135L48.5867 60.4001C48.52 60.0135 48.48 59.6401 48.44 59.1735L48.32 57.9201L48.5867 57.8801Z" fill="#916B1C"/>
<path d="M36.7098 33.181L36.2198 36.7878L39.8532 37.2814L40.3431 33.6745L36.7098 33.181Z" fill="#916B1C"/>
<path d="M39.8221 37.2731L39.4595 40.2109L42.4105 40.5752L42.7731 37.6374L39.8221 37.2731Z" fill="#916B1C"/>
<path d="M42.4038 40.5708L42.1483 42.541L44.1449 42.7999L44.4004 40.8298L42.4038 40.5708Z" fill="#916B1C"/>
<path d="M44.1465 42.7995L43.9602 43.8091L45.0092 44.0027L45.1955 42.9931L44.1465 42.7995Z" fill="#916B1C"/>
<path d="M36.92 28.84C36.92 28.84 39.4667 30.16 40.3333 30.64C41.2 31.12 41.2933 29.96 42.4933 29.92C43.68 29.88 49.8667 29.6667 52.5333 35.2267C52.5333 35.2267 55.3333 37.1333 55.56 37.04C55.7866 36.9467 55.1067 39.24 54.9067 39.5733C54.7067 39.8933 55.0667 48.2933 49.4267 52.0933C49.2267 52.2533 52.6 46.16 48.4267 39.9733C48.3333 39.7467 47.28 38.3733 47.1467 38.6C47.0133 38.8267 47.48 40.44 47.5866 40.48C47.6933 40.52 45.5867 39.6267 45.32 37.88C45.32 37.7067 45.04 37.5333 45.0133 37.9333C45.0133 38 45.0533 38.7467 45.1467 38.7867C45.24 38.8267 43.76 39 44.04 35.2533C44.0533 34.92 36.36 29.52 36.36 29.52C36.36 29.52 35.9333 29.12 36.2 28.8667C36.48 28.5733 36.92 28.84 36.92 28.84Z" fill="#916B1C"/>
<path d="M48.9733 42.28C48.9733 42.28 49.7067 49.8 43.8133 52.44C43.8133 52.44 43.5067 52.52 43.4 52.3734C43.2933 52.2267 41.52 49.2667 40.5733 49.5467L40.7733 51.36L39.8533 52.2667L40.0667 53.0534H39.3067L37.8267 54.9067C37.8267 54.9067 40.4133 56.48 43.4267 54.4267C43.5067 54.3867 53.0267 54.1467 48.9733 42.28Z" fill="#916B1C"/>
<defs>
<linearGradient id="paint0_linear_75_5105" x1="18.1285" y1="40.106" x2="44.5607" y2="40.106" gradientUnits="userSpaceOnUse">
<stop stop-color="#F7C55F"/>
<stop offset="1" stop-color="#E6743B"/>
</linearGradient>
<linearGradient id="paint1_linear_75_5105" x1="19.586" y1="57.8645" x2="44.5607" y2="57.8645" gradientUnits="userSpaceOnUse">
<stop stop-color="#F7C55F"/>
<stop offset="1" stop-color="#E6743B"/>
</linearGradient>
<linearGradient id="paint2_linear_75_5105" x1="18.3509" y1="45.8356" x2="24.7607" y2="45.8356" gradientUnits="userSpaceOnUse">
<stop stop-color="#F7C55F"/>
<stop offset="1" stop-color="#E6743B"/>
</linearGradient>
<linearGradient id="paint3_linear_75_5105" x1="18.1285" y1="39.7047" x2="23.5256" y2="39.7047" gradientUnits="userSpaceOnUse">
<stop stop-color="#F7C55F"/>
<stop offset="1" stop-color="#E6743B"/>
</linearGradient>
<linearGradient id="paint4_linear_75_5105" x1="18.1804" y1="33.1633" x2="24.4653" y2="33.1633" gradientUnits="userSpaceOnUse">
<stop stop-color="#F7C55F"/>
<stop offset="1" stop-color="#E6743B"/>
</linearGradient>
<linearGradient id="paint5_linear_75_5105" x1="19.2908" y1="22.9994" x2="32.6879" y2="22.9994" gradientUnits="userSpaceOnUse">
<stop stop-color="#F7C55F"/>
<stop offset="1" stop-color="#E6743B"/>
</linearGradient>
<linearGradient id="paint6_linear_75_5105" x1="27.5131" y1="15.1104" x2="37.5407" y2="15.1104" gradientUnits="userSpaceOnUse">
<stop stop-color="#F7C55F"/>
<stop offset="1" stop-color="#E6743B"/>
</linearGradient>
<linearGradient id="paint7_linear_75_5105" x1="32.3659" y1="13.6466" x2="39.2236" y2="13.6466" gradientUnits="userSpaceOnUse">
<stop stop-color="#F7C55F"/>
<stop offset="1" stop-color="#E6743B"/>
</linearGradient>
<linearGradient id="paint8_linear_75_5105" x1="42.5873" y1="13.04" x2="42.5873" y2="66.5751" gradientUnits="userSpaceOnUse">
<stop stop-color="#F7C55F"/>
<stop offset="1" stop-color="#E6743B"/>
</linearGradient>
<linearGradient id="paint9_linear_75_5105" x1="42.5863" y1="33.1896" x2="42.5863" y2="70.5289" gradientUnits="userSpaceOnUse">
<stop stop-color="#F7C55F"/>
<stop offset="1" stop-color="#E6743B"/>
</linearGradient>
</defs>
</svg>
