<svg width="24" height="24" viewBox="0 0 24 24" fill="none" xmlns="http://www.w3.org/2000/svg">
<path d="M18 8.72734C18 6.99138 17.3679 5.32651 16.2426 4.099C15.1174 2.87149 13.5913 2.18188 12 2.18188C10.4087 2.18188 8.88258 2.87149 7.75736 4.099C6.63214 5.32651 6 6.99138 6 8.72734C6 16.3637 3 18.5455 3 18.5455H21C21 18.5455 18 16.3637 18 8.72734Z" fill="#2684FE" stroke="#2684FE" stroke-width="1.5" stroke-linecap="round" stroke-linejoin="round"/>
<path d="M13.73 20.9092C13.5542 21.2398 13.3019 21.5143 12.9982 21.705C12.6946 21.8958 12.3504 21.9962 12 21.9962C11.6496 21.9962 11.3054 21.8958 11.0018 21.705C10.6982 21.5143 10.4458 21.2398 10.27 20.9092" stroke="#2684FE" stroke-width="1.5" stroke-linecap="round" stroke-linejoin="round"/>
</svg>









