<svg width="24" height="24" viewBox="0 0 24 24" fill="none" xmlns="http://www.w3.org/2000/svg">
<path d="M7 8.5H6.25C6.25 9.45774 5.46384 10.25 4.5 10.25C3.56528 10.25 2.79765 9.50488 2.75213 8.58632L4.11303 3.2798L4.1154 3.27246C4.11987 3.25915 4.12833 3.23553 4.14127 3.20515C4.16802 3.14233 4.20902 3.06222 4.26517 2.98642C4.37277 2.84116 4.49948 2.75 4.7 2.75H19.3C19.5005 2.75 19.6272 2.84116 19.7348 2.98642C19.791 3.06222 19.832 3.14233 19.8587 3.20515C19.8717 3.23553 19.8801 3.25915 19.8846 3.27246L19.887 3.2798L21.2479 8.58632C21.2023 9.50488 20.4347 10.25 19.5 10.25C18.5362 10.25 17.75 9.45774 17.75 8.5H17H16.25C16.25 9.45774 15.4638 10.25 14.5 10.25C13.5362 10.25 12.75 9.45774 12.75 8.5H12H11.25C11.25 9.45774 10.4638 10.25 9.5 10.25C8.53616 10.25 7.75 9.45774 7.75 8.5H7ZM20.25 13.1886V20C20.25 20.6858 19.6858 21.25 19 21.25H5C4.31421 21.25 3.75 20.6858 3.75 20V13.1878C4.2235 13.2654 4.70817 13.2704 5.18719 13.201C5.83358 13.1073 6.45126 12.8805 7.0021 12.5372C7.7299 12.9877 8.58648 13.25 9.5 13.25C10.4191 13.25 11.2776 12.9891 12.0023 12.5373C12.73 12.9878 13.5865 13.25 14.5 13.25C15.4184 13.25 16.2761 12.9895 17.0004 12.5385C17.7274 12.9898 18.5904 13.25 19.5 13.25C19.7551 13.25 20.0058 13.2287 20.25 13.1886Z" stroke="#C4C4C4" stroke-width="1.5"/>
</svg>
